# xmcd
#
# Track frame offsets:
# 150
# 18390
# 38305
# 57642
# 77102
# 98055
# 115209
# 135523
# 152140
# 173220
# 190098
# 210410
# 231091
# 250867
# 268192
# 282306
# 301410
#
# Disc length: 4236 seconds
#
#
# Revision: 1
# Processed by: cddbd v1.4PL0 Copyright (c) Steve Scherf et al.
# Submitted via: FreeRIP 2.35 
#
DISCID=e2108a11
DTITLE=Laura Pausini - Lo Mejor De Laura Pausini Volvere Junto A Ti
DYEAR=2001
DGENRE=Pop
TTITLE0=Volvere junto a ti
TTITLE1=La soledad
TTITLE2=Se fuè
TTITLE3=Amores extraños
TTITLE4=Gente (ordinary people)
TTITLE5=Inolvidable
TTITLE6=Las cosas que vives
TTITLE7=Cuando se ama (sei que me amavas) duo con Gilberto Gil
TTITLE8=Escucha a tu corazon
TTITLE9=La mia risposta
TTITLE10=En ausencia de ti
TTITLE11=Emergencia de amor
TTITLE12=One more time
TTITLE13=Entre tù y mil mares
TTITLE14=Un error de los grandes
TTITLE15=Dos historias iguales
TTITLE16=Dime (duo con José el Francés)
EXTD=ID3G:  12
EXTT0=
EXTT1=
EXTT2=
EXTT3=
EXTT4=
EXTT5=
EXTT6=
EXTT7=
EXTT8=
EXTT9=
EXTT10=
EXTT11=
EXTT12=
EXTT13=
EXTT14=
EXTT15=
EXTT16=
PLAYORDER=
